<svg width="256" height="256" viewBox="0 0 256 256" fill="none" xmlns="http://www.w3.org/2000/svg" role="img" aria-labelledby="title desc">
  <title id="title">PDF Insight AI Logo</title>
  <desc id="desc">Minimal document logo with insight spark and AI nodes.</desc>
  <rect width="256" height="256" rx="56" fill="url(#bg)"/>
  <path d="M76 48H146L188 90V208C188 216.837 180.837 224 172 224H76C67.1634 224 60 216.837 60 208V64C60 55.1634 67.1634 48 76 48Z" fill="white"/>
  <path d="M146 48V82C146 90.8366 153.163 98 162 98H188" fill="#EDE9FE"/>
  <path d="M146 48V82C146 90.8366 153.163 98 162 98H188" stroke="#4F46E5" stroke-width="10" stroke-linejoin="round"/>
  <path d="M76 48H146L188 90V208C188 216.837 180.837 224 172 224H76C67.1634 224 60 216.837 60 208V64C60 55.1634 67.1634 48 76 48Z" stroke="#4F46E5" stroke-width="10" stroke-linejoin="round"/>
  <path d="M91 132H154" stroke="#111827" stroke-width="10" stroke-linecap="round"/>
  <path d="M91 158H140" stroke="#111827" stroke-width="10" stroke-linecap="round" opacity="0.75"/>
  <path d="M91 184H124" stroke="#111827" stroke-width="10" stroke-linecap="round" opacity="0.55"/>
  <circle cx="166" cy="163" r="22" fill="#C7D2FE" stroke="#4F46E5" stroke-width="8"/>
  <path d="M181 178L202 199" stroke="#4F46E5" stroke-width="10" stroke-linecap="round"/>
  <circle cx="166" cy="163" r="6" fill="#4F46E5"/>
  <circle cx="151" cy="151" r="5" fill="#4F46E5"/>
  <circle cx="178" cy="148" r="5" fill="#4F46E5"/>
  <path d="M156 155L166 163L174 152" stroke="#4F46E5" stroke-width="4" stroke-linecap="round"/>
  <defs>
    <linearGradient id="bg" x1="32" y1="24" x2="224" y2="236" gradientUnits="userSpaceOnUse">
      <stop stop-color="#EEF2FF"/>
      <stop offset="1" stop-color="#F5F3FF"/>
    </linearGradient>
  </defs>
</svg>
